# Blender v2.80 (sub 74) OBJ File: 'cafe.blend'
# www.blender.org
mtllib cafe7.mtl
o room_Cube
v 5.072169 2.028867 -4.057735
v 5.072169 -2.028867 -4.057735
v 5.072169 2.028867 4.057735
v 5.072169 -2.028867 4.057735
v -5.072169 2.028867 -4.057735
v -5.072169 -2.028867 -4.057735
v -5.072169 2.028867 4.057735
v -5.072169 -2.028867 4.057735
v 5.088386 1.244998 -4.070708
v 5.088386 -0.833936 -4.070708
v -5.088386 -0.833936 4.070708
v -5.088386 1.244998 4.070708
v 5.088386 1.244998 4.070708
v 5.088386 -0.833936 4.070708
v -5.088386 1.244998 -4.070708
v -5.088386 -0.833936 -4.070708
v 4.457388 -2.035354 -4.070708
v -4.457388 -2.035354 -4.070708
v 4.457388 2.035354 4.070708
v -4.457388 2.035354 4.070708
v -4.457388 -2.035354 4.070708
v 4.457388 -2.035354 4.070708
v -4.457388 2.035354 -4.070708
v 4.457388 2.035354 -4.070708
v -4.457388 -0.833936 -4.100000
v 4.457388 -0.833936 -4.100000
v -4.457388 1.244998 -4.100000
v 4.457388 1.244998 -4.100000
v 4.457388 -0.833936 4.100000
v -4.457388 -0.833936 4.100000
v 4.457388 1.244998 4.100000
v -4.457388 1.244998 4.100000
v 5.088386 -1.925490 -4.070708
v 5.088386 -1.925490 4.070708
v -5.088386 -1.925490 -4.070708
v -5.088386 -1.925490 4.070708
v 4.457388 -1.925490 4.100000
v -4.457388 -1.925490 4.100000
v -4.457388 -1.925490 -4.100000
v 4.457388 -1.925490 -4.100000
v -4.457388 0.800230 4.100000
v 4.457388 0.800229 4.100000
v 2.038762 -2.035354 4.070708
v 2.038761 1.244998 4.100000
v 2.038762 -1.925490 4.100000
v 2.038762 -2.035354 -4.070708
v 2.038762 -0.833936 4.100000
v 2.038761 0.800229 4.100000
v 3.598123 -2.035354 4.070708
v 3.598125 1.244998 4.100000
v 3.598124 -0.833936 4.100000
v 3.598123 -2.035354 -4.070708
v 3.598125 0.800229 4.100000
v 3.598123 -1.925490 4.100000
v 5.000000 2.000000 -4.000000
v 5.000000 -2.000000 -4.000000
v 5.000000 2.000000 4.000000
v 5.000000 -2.000000 4.000000
v -5.000000 2.000000 -4.000000
v -5.000000 -2.000000 -4.000000
v -5.000000 2.000000 4.000000
v -5.000000 -2.000000 4.000000
v 5.000000 1.244998 -4.000000
v 5.000000 -0.833936 -4.000000
v -5.000000 -0.833936 4.000000
v -5.000000 1.244998 4.000000
v 5.000000 1.244998 4.000000
v 5.000000 -0.833936 4.000000
v -5.000000 1.244998 -4.000000
v -5.000000 -0.833936 -4.000000
v 4.457388 -2.000000 -4.000000
v -4.457388 -2.000000 -4.000000
v 4.457388 2.000000 4.000000
v -4.457388 2.000000 4.000000
v -4.457388 -2.000000 4.000000
v 4.457388 -2.000000 4.000000
v -4.457388 2.000000 -4.000000
v 4.457388 2.000000 -4.000000
v -4.457388 -0.833936 -4.000000
v 4.457388 -0.833936 -4.000000
v -4.457388 1.244998 -4.000000
v 4.457388 1.244998 -4.000000
v 4.457388 -0.833936 4.000000
v -4.457388 -0.833936 4.000000
v 4.457388 1.244998 4.000000
v -4.457388 1.244998 4.000000
v 5.000000 -1.925490 -4.000000
v 5.000000 -1.925490 4.000000
v -5.000000 -1.925490 -4.000000
v -5.000000 -1.925490 4.000000
v 4.457388 -1.925490 4.000000
v -4.457388 -1.925490 4.000000
v -4.457388 -1.925490 -4.000000
v 4.457388 -1.925490 -4.000000
v -4.457388 0.800230 4.000000
v 4.457388 0.800229 4.000000
v 2.038762 -2.000000 4.000000
v 2.038761 1.244998 4.000000
v 2.038762 -1.925490 4.000000
v 2.038762 -2.000000 -4.000000
v 2.038762 -0.833936 4.000000
v 2.038761 0.800229 4.000000
v 3.598123 -2.000000 4.000000
v 3.598125 1.244998 4.000000
v 3.598124 -0.833936 4.000000
v 3.598123 -2.000000 -4.000000
v 3.598125 0.800229 4.000000
v 3.598123 -1.925490 4.000000
vt 0.541667 0.000000
vt 0.625000 0.000000
vt 0.625000 0.250000
vt 0.541667 0.250000
vt 0.577812 0.416667
vt 0.625000 0.416667
vt 0.625000 0.500000
vt 0.577812 0.500000
vt 0.625000 0.750000
vt 0.577812 0.750000
vt 0.541667 0.750000
vt 0.625000 0.750000
vt 0.625000 1.000000
vt 0.541667 1.000000
vt 0.327812 0.500000
vt 0.375000 0.500000
vt 0.375000 0.750000
vt 0.327812 0.750000
vt 0.827812 0.666667
vt 0.875000 0.666667
vt 0.875000 0.750000
vt 0.827812 0.750000
vt 0.629657 0.666667
vt 0.697879 0.666667
vt 0.697879 0.750000
vt 0.629657 0.750000
vt 0.129657 0.500000
vt 0.197879 0.500000
vt 0.197879 0.750000
vt 0.129657 0.750000
vt 0.379657 0.500000
vt 0.447879 0.500000
vt 0.447879 0.750000
vt 0.379657 0.750000
vt 0.379657 0.416667
vt 0.447879 0.416667
vt 0.550014 0.416667
vt 0.447879 0.250000
vt 0.577812 0.250000
vt 0.550014 0.333333
vt 0.447879 0.333333
vt 0.379657 0.250000
vt 0.379657 0.333333
vt 0.447879 0.341366
vt 0.379657 0.341366
vt 0.697879 0.500000
vt 0.827812 0.500000
vt 0.827812 0.583333
vt 0.697879 0.583333
vt 0.629657 0.500000
vt 0.629657 0.583333
vt 0.875000 0.500000
vt 0.875000 0.583333
vt 0.375000 0.750000
vt 0.458333 0.750000
vt 0.458333 1.000000
vt 0.375000 1.000000
vt 0.519058 0.750000
vt 0.519058 1.000000
vt 0.625000 0.250000
vt 0.625000 0.333333
vt 0.577812 0.333333
vt 0.577812 0.341366
vt 0.375000 0.000000
vt 0.458333 0.000000
vt 0.458333 0.250000
vt 0.375000 0.250000
vt 0.625000 0.583333
vt 0.625000 0.666667
vt 0.625000 0.658634
vt 0.625000 0.644058
vt 0.625000 0.500000
vt 0.375000 0.333333
vt 0.375000 0.341366
vt 0.375000 0.250000
vt 0.375000 0.416667
vt 0.375000 0.500000
vt 0.125000 0.500000
vt 0.125000 0.750000
vt 0.550014 0.355942
vt 0.577812 0.355942
vt 0.533634 0.750000
vt 0.533634 1.000000
vt 0.375000 0.355942
vt 0.379657 0.355942
vt 0.447879 0.355942
vt 0.550014 0.341366
vt 0.541667 0.000000
vt 0.541667 0.250000
vt 0.625000 0.250000
vt 0.625000 0.000000
vt 0.577812 0.416667
vt 0.577812 0.500000
vt 0.625000 0.500000
vt 0.625000 0.416667
vt 0.577812 0.750000
vt 0.625000 0.750000
vt 0.541667 0.750000
vt 0.541667 1.000000
vt 0.625000 1.000000
vt 0.625000 0.750000
vt 0.327812 0.500000
vt 0.327812 0.750000
vt 0.375000 0.750000
vt 0.375000 0.500000
vt 0.827812 0.666667
vt 0.827812 0.750000
vt 0.875000 0.750000
vt 0.875000 0.666667
vt 0.629657 0.666667
vt 0.629657 0.750000
vt 0.697879 0.750000
vt 0.697879 0.666667
vt 0.129657 0.500000
vt 0.129657 0.750000
vt 0.197879 0.750000
vt 0.197879 0.500000
vt 0.379657 0.500000
vt 0.379657 0.750000
vt 0.447879 0.750000
vt 0.447879 0.500000
vt 0.379657 0.416667
vt 0.447879 0.416667
vt 0.550014 0.416667
vt 0.447879 0.250000
vt 0.447879 0.333333
vt 0.550014 0.333333
vt 0.577812 0.250000
vt 0.379657 0.250000
vt 0.379657 0.333333
vt 0.379657 0.341366
vt 0.447879 0.341366
vt 0.697879 0.500000
vt 0.697879 0.583333
vt 0.827812 0.583333
vt 0.827812 0.500000
vt 0.629657 0.500000
vt 0.629657 0.583333
vt 0.875000 0.583333
vt 0.875000 0.500000
vt 0.375000 0.750000
vt 0.375000 1.000000
vt 0.458333 1.000000
vt 0.458333 0.750000
vt 0.519058 1.000000
vt 0.519058 0.750000
vt 0.577812 0.333333
vt 0.625000 0.333333
vt 0.625000 0.250000
vt 0.577812 0.341366
vt 0.375000 0.000000
vt 0.375000 0.250000
vt 0.458333 0.250000
vt 0.458333 0.000000
vt 0.625000 0.583333
vt 0.625000 0.644058
vt 0.625000 0.658634
vt 0.625000 0.666667
vt 0.625000 0.500000
vt 0.375000 0.333333
vt 0.375000 0.341366
vt 0.375000 0.250000
vt 0.375000 0.416667
vt 0.375000 0.500000
vt 0.125000 0.500000
vt 0.125000 0.750000
vt 0.577812 0.355942
vt 0.550014 0.355942
vt 0.533634 1.000000
vt 0.533634 0.750000
vt 0.375000 0.355942
vt 0.379657 0.355942
vt 0.447879 0.355942
vt 0.550014 0.341366
vn -0.0106 0.9999 0.0000
vn -0.0340 0.0272 0.9991
vn -0.9998 0.0207 0.0000
vn 0.0106 -0.9999 0.0000
vn 0.9998 0.0207 0.0000
vn 0.0340 0.0272 -0.9991
vn 0.0464 0.0000 -0.9989
vn 1.0000 0.0000 0.0000
vn -1.0000 0.0000 0.0000
vn -0.0464 0.0000 0.9989
vn 0.0464 0.0000 0.9989
vn 0.0000 0.0000 1.0000
vn -0.0464 0.0000 -0.9989
vn 0.0000 0.0000 -1.0000
vn -0.0340 0.0272 -0.9991
vn 0.0000 0.0370 -0.9993
vn -0.0106 -0.9999 0.0000
vn 0.0000 -1.0000 -0.0000
vn 0.0340 0.0272 0.9991
vn 0.0000 0.0370 0.9993
vn 0.0106 0.9999 0.0000
vn 0.0000 1.0000 0.0000
vn 0.0000 -0.2576 -0.9662
vn -0.0343 -0.1968 -0.9798
vn 0.0000 -0.2576 0.9662
vn 0.0343 -0.1968 0.9798
vn -0.0343 -0.1968 0.9798
vn -0.9879 -0.1550 0.0000
vn 0.9879 -0.1550 0.0000
vn 0.0343 -0.1968 -0.9798
usemtl Material
s off
f 23/1/1 5/2/1 7/3/1 20/4/1
f 32/5/2 20/6/2 7/7/2 12/8/2
f 12/8/3 7/7/3 5/9/3 15/10/3
f 17/11/4 2/12/4 4/13/4 22/14/4
f 9/15/5 1/16/5 3/17/5 13/18/5
f 28/19/6 24/20/6 1/21/6 9/22/6
f 40/23/7 26/24/7 10/25/7 33/26/7
f 26/24/7 28/19/7 9/22/7 10/25/7
f 33/27/8 10/28/8 14/29/8 34/30/8
f 10/28/8 9/15/8 13/18/8 14/29/8
f 36/31/9 11/32/9 16/33/9 35/34/9
f 11/32/9 12/8/9 15/10/9 16/33/9
f 38/35/10 30/36/10 11/32/10 36/31/10
f 30/36/10 41/37/10 12/8/10 11/32/10
f 14/38/11 13/39/11 42/40/11 29/41/11
f 34/42/11 14/38/11 29/41/11 37/43/11
f 37/43/12 29/41/12 51/44/12 54/45/12
f 16/46/13 15/47/13 27/48/13 25/49/13
f 25/49/14 27/48/14 28/19/14 26/24/14
f 35/50/13 16/46/13 25/49/13 39/51/13
f 39/51/14 25/49/14 26/24/14 40/23/14
f 15/47/15 5/52/15 23/53/15 27/48/15
f 27/48/16 23/53/16 24/20/16 28/19/16
f 6/54/17 18/55/17 21/56/17 8/57/17
f 18/55/18 46/58/18 43/59/18 21/56/18
f 13/39/19 3/60/19 19/61/19 31/62/19
f 31/62/20 19/61/20 50/63/20
f 1/64/21 24/65/21 19/66/21 3/67/21
f 24/65/22 23/1/22 20/4/22 19/66/22
f 18/68/23 39/51/23 40/23/23 17/69/23 52/70/23 46/71/23
f 6/72/24 35/50/24 39/51/24 18/68/24
f 22/73/25 37/43/25 54/45/25 49/74/25
f 4/75/26 34/42/26 37/43/26 22/73/26
f 21/76/27 38/35/27 36/31/27 8/77/27
f 8/77/28 36/31/28 35/34/28 6/54/28
f 2/78/29 33/27/29 34/30/29 4/79/29
f 17/69/30 40/23/30 33/26/30 2/12/30
f 41/37/12 48/80/12 44/81/12 32/5/12
f 43/59/18 46/58/18 52/82/18 49/83/18
f 43/84/25 45/85/25 38/35/25 21/76/25
f 45/85/12 47/86/12 30/36/12 38/35/12
f 44/81/12 48/80/12 53/87/12 50/63/12
f 49/74/25 54/45/25 45/85/25 43/84/25
f 49/83/18 52/82/18 17/11/18 22/14/18
f 50/63/12 53/87/12 42/40/12 31/62/12
f 44/81/20 20/6/20 32/5/20
f 50/63/20 19/61/20 20/6/20 44/81/20
f 12/8/10 41/37/10 32/5/10
f 42/40/11 13/39/11 31/62/11
f 77/88/18 74/89/18 61/90/18 59/91/18
f 86/92/14 66/93/14 61/94/14 74/95/14
f 66/93/8 69/96/8 59/97/8 61/94/8
f 71/98/22 76/99/22 58/100/22 56/101/22
f 63/102/9 67/103/9 57/104/9 55/105/9
f 82/106/12 63/107/12 55/108/12 78/109/12
f 94/110/12 87/111/12 64/112/12 80/113/12
f 80/113/12 64/112/12 63/107/12 82/106/12
f 87/114/9 88/115/9 68/116/9 64/117/9
f 64/117/9 68/116/9 67/103/9 63/102/9
f 90/118/8 89/119/8 70/120/8 65/121/8
f 65/121/8 70/120/8 69/96/8 66/93/8
f 92/122/14 90/118/14 65/121/14 84/123/14
f 84/123/14 65/121/14 66/93/14 95/124/14
f 68/125/14 83/126/14 96/127/14 67/128/14
f 88/129/14 91/130/14 83/126/14 68/125/14
f 91/130/14 108/131/14 105/132/14 83/126/14
f 70/133/12 79/134/12 81/135/12 69/136/12
f 79/134/12 80/113/12 82/106/12 81/135/12
f 89/137/12 93/138/12 79/134/12 70/133/12
f 93/138/12 94/110/12 80/113/12 79/134/12
f 69/136/12 81/135/12 77/139/12 59/140/12
f 81/135/12 82/106/12 78/109/12 77/139/12
f 60/141/22 62/142/22 75/143/22 72/144/22
f 72/144/22 75/143/22 97/145/22 100/146/22
f 67/128/14 85/147/14 73/148/14 57/149/14
f 85/147/14 104/150/14 73/148/14
f 55/151/18 57/152/18 73/153/18 78/154/18
f 78/154/18 73/153/18 74/89/18 77/88/18
f 72/155/12 100/156/12 106/157/12 71/158/12 94/110/12 93/138/12
f 60/159/12 72/155/12 93/138/12 89/137/12
f 76/160/14 103/161/14 108/131/14 91/130/14
f 58/162/14 76/160/14 91/130/14 88/129/14
f 75/163/14 62/164/14 90/118/14 92/122/14
f 62/164/8 60/141/8 89/119/8 90/118/8
f 56/165/9 58/166/9 88/115/9 87/114/9
f 71/158/12 56/101/12 87/111/12 94/110/12
f 95/124/14 86/92/14 98/167/14 102/168/14
f 97/145/22 103/169/22 106/170/22 100/146/22
f 97/171/14 75/163/14 92/122/14 99/172/14
f 99/172/14 92/122/14 84/123/14 101/173/14
f 98/167/14 104/150/14 107/174/14 102/168/14
f 103/161/14 97/171/14 99/172/14 108/131/14
f 103/169/22 76/99/22 71/98/22 106/170/22
f 104/150/14 85/147/14 96/127/14 107/174/14
f 98/167/14 86/92/14 74/95/14
f 104/150/14 98/167/14 74/95/14 73/148/14
f 66/93/14 86/92/14 95/124/14
f 96/127/14 85/147/14 67/128/14
f 30/36/22 47/86/22 101/173/22 84/123/22
f 29/41/9 42/40/9 96/127/9 83/126/9
f 41/37/8 30/36/8 84/123/8 95/124/8
f 42/40/18 53/87/18 107/174/18 96/127/18
f 45/85/22 54/45/22 108/131/22 99/172/22
f 48/80/18 41/37/18 95/124/18 102/168/18
f 47/86/8 45/85/8 99/172/8 101/173/8
f 51/44/22 29/41/22 83/126/22 105/132/22
f 53/87/18 48/80/18 102/168/18 107/174/18
f 54/45/9 51/44/9 105/132/9 108/131/9
