# Blender v2.80 (sub 74) OBJ File: 'coffee_cup.blend'
# www.blender.org
mtllib coffee_cup.mtl
o Circle
v -0.000000 0.000000 -0.030524
v -0.014185 0.000000 -0.027028
v -0.025121 0.000000 -0.017340
v -0.030302 0.000000 -0.003679
v -0.028541 0.000000 0.010824
v -0.020241 0.000000 0.022848
v -0.007305 0.000000 0.029637
v 0.007305 0.000000 0.029637
v 0.020241 0.000000 0.022848
v 0.028541 0.000000 0.010824
v 0.030302 0.000000 -0.003679
v 0.025121 0.000000 -0.017340
v 0.014185 0.000000 -0.027028
v 0.000000 0.066000 -0.043500
v -0.020215 0.066000 -0.038517
v -0.035800 0.066000 -0.024711
v -0.043183 0.066000 -0.005243
v -0.040673 0.066000 0.015425
v -0.028846 0.066000 0.032560
v -0.010410 0.066000 0.042236
v 0.010410 0.066000 0.042236
v 0.028846 0.066000 0.032560
v 0.040673 0.066000 0.015425
v 0.043183 0.066000 -0.005243
v 0.035800 0.066000 -0.024711
v 0.020215 0.066000 -0.038517
v -0.002585 0.026861 0.039320
v -0.003411 0.047719 0.042236
v 0.003411 0.047719 0.042236
v 0.002585 0.026861 0.039320
v 0.028846 0.044000 0.032560
v 0.026041 0.019861 0.029395
v -0.000000 0.019861 -0.039271
v 0.000000 0.044000 -0.043500
v -0.020215 0.044000 -0.038517
v -0.018250 0.019861 -0.034773
v 0.040673 0.044000 0.015425
v 0.036719 0.019861 0.013926
v -0.035800 0.044000 -0.024711
v -0.032319 0.019861 -0.022308
v 0.043183 0.044000 -0.005243
v 0.038984 0.019861 -0.004734
v -0.043183 0.044000 -0.005243
v -0.038984 0.019861 -0.004734
v 0.035800 0.044000 -0.024711
v 0.032319 0.019861 -0.022308
v -0.040673 0.044000 0.015425
v -0.036719 0.019861 0.013926
v 0.020215 0.044000 -0.038517
v 0.018250 0.019861 -0.034773
v -0.028846 0.044000 0.032560
v -0.026041 0.019861 0.029395
v 0.003411 0.053859 0.042236
v -0.002845 0.033066 0.040376
v -0.003411 0.053859 0.042236
v 0.002845 0.033066 0.040376
v -0.009398 0.019861 0.038130
v -0.010410 0.044000 0.042236
v 0.010410 0.044000 0.042236
v 0.009398 0.019861 0.038130
v -0.002585 0.027228 0.054778
v -0.002845 0.032700 0.051666
v 0.002845 0.032700 0.051666
v 0.002585 0.027228 0.054778
v -0.002585 0.031869 0.061234
v -0.002845 0.033756 0.055229
v 0.002845 0.033756 0.055229
v 0.002585 0.031869 0.061234
v -0.002585 0.040098 0.063414
v -0.002845 0.038872 0.057240
v 0.002845 0.038872 0.057240
v 0.002585 0.040098 0.063414
v -0.002585 0.047179 0.061639
v -0.002845 0.043219 0.056746
v 0.002845 0.043219 0.056746
v 0.002585 0.047179 0.061639
v -0.002585 0.051029 0.057911
v -0.002845 0.045080 0.055853
v 0.002845 0.045080 0.055853
v 0.002585 0.051029 0.057911
v -0.002585 0.052798 0.052510
v -0.002845 0.046529 0.051949
v 0.002845 0.046529 0.051949
v 0.002585 0.052798 0.052510
v -0.000000 0.066000 -0.040907
v -0.019011 0.066000 -0.036222
v -0.033666 0.066000 -0.023238
v -0.040609 0.066000 -0.004931
v -0.038249 0.066000 0.014506
v -0.027127 0.066000 0.030620
v -0.009790 0.066000 0.039719
v 0.009790 0.066000 0.039719
v 0.027127 0.066000 0.030620
v 0.038249 0.066000 0.014506
v 0.040609 0.066000 -0.004931
v 0.033666 0.066000 -0.023238
v 0.019011 0.066000 -0.036222
v -0.000000 0.044007 -0.040907
v -0.019011 0.044007 -0.036222
v -0.033666 0.044007 -0.023238
v -0.040609 0.044007 -0.004931
v -0.038249 0.044007 0.014506
v -0.027127 0.044007 0.030620
v -0.009790 0.044007 0.039719
v 0.009790 0.044007 0.039719
v 0.027127 0.044007 0.030620
v 0.038249 0.044007 0.014506
v 0.040609 0.044007 -0.004931
v 0.033666 0.044007 -0.023238
v 0.019011 0.044007 -0.036222
v -0.000000 0.019993 -0.036849
v -0.017125 0.019993 -0.032628
v -0.030326 0.019993 -0.020933
v -0.036580 0.019993 -0.004442
v -0.034454 0.019993 0.013067
v -0.024435 0.019993 0.027582
v -0.008819 0.019993 0.035778
v 0.008819 0.019993 0.035778
v 0.024435 0.019993 0.027582
v 0.034454 0.019993 0.013067
v 0.036580 0.019993 -0.004442
v 0.030326 0.019993 -0.020933
v 0.017125 0.019993 -0.032628
v -0.000000 0.002731 -0.026444
v -0.012289 0.002731 -0.023415
v -0.021763 0.002731 -0.015022
v -0.026251 0.002731 -0.003187
v -0.024725 0.002731 0.009377
v -0.017535 0.002731 0.019793
v -0.006328 0.002731 0.025675
v 0.006328 0.002731 0.025675
v 0.017535 0.002731 0.019793
v 0.024725 0.002731 0.009377
v 0.026251 0.002731 -0.003187
v 0.021763 0.002731 -0.015022
v 0.012289 0.002731 -0.023415
vt 0.000000 0.000000
vt 0.000000 0.000000
vt 0.000000 0.000000
vt 0.000000 0.000000
vt 0.000000 0.000000
vt 0.000000 0.000000
vt 0.000000 0.000000
vt 0.000000 0.000000
vt 0.000000 0.000000
vt 0.000000 0.000000
vt 0.000000 0.000000
vt 0.000000 0.000000
vt 0.000000 0.000000
vt 0.000000 0.000000
vt 0.000000 0.000000
vt 0.000000 0.000000
vt 0.000000 0.000000
vt 0.000000 0.000000
vt 0.000000 0.000000
vt 0.000000 0.000000
vt 0.000000 0.000000
vt 0.000000 0.000000
vt 0.000000 0.000000
vt 0.000000 0.000000
vt 0.000000 0.000000
vt 0.000000 0.000000
vt 0.000000 0.000000
vt 0.000000 0.000000
vt 0.000000 0.000000
vt 0.000000 0.000000
vt 0.000000 0.000000
vt 0.000000 0.000000
vt 0.000000 0.000000
vt 0.000000 0.000000
vt 0.000000 0.000000
vt 0.000000 0.000000
vt 0.000000 0.000000
vt 0.000000 0.000000
vt 0.000000 0.000000
vt 0.000000 0.000000
vt 0.000000 0.000000
vt 0.000000 0.000000
vt 0.000000 0.000000
vt 0.000000 0.000000
vt 0.000000 0.000000
vt 0.000000 0.000000
vt 0.000000 0.000000
vt 0.000000 0.000000
vt 0.000000 0.000000
vt 0.000000 0.000000
vt 0.000000 0.000000
vt 0.000000 0.000000
vt 0.000000 0.000000
vt 0.000000 0.000000
vt 0.000000 0.000000
vt 0.000000 0.000000
vt 0.000000 0.000000
vt 0.000000 0.000000
vt 0.000000 0.000000
vt 0.000000 0.000000
vt 0.000000 0.000000
vt 0.000000 0.000000
vt 0.000000 0.000000
vt 0.000000 0.000000
vt 0.000000 0.000000
vt 0.000000 0.000000
vt 0.000000 0.000000
vt 0.000000 0.000000
vt 0.000000 0.000000
vt 0.000000 0.000000
vt 0.000000 0.000000
vt 0.000000 0.000000
vt 0.000000 0.000000
vt 0.000000 0.000000
vt 0.000000 0.000000
vt 0.000000 0.000000
vt 0.000000 0.000000
vt 0.000000 0.000000
vt 0.000000 0.000000
vt 0.000000 0.000000
vt 0.000000 0.000000
vt 0.000000 0.000000
vt 0.000000 0.000000
vt 0.000000 0.000000
vt 0.000000 0.000000
vt 0.000000 0.000000
vt 0.000000 0.000000
vt 0.000000 0.000000
vt 0.000000 0.000000
vt 0.000000 0.000000
vt 0.000000 0.000000
vt 0.000000 0.000000
vt 0.000000 0.000000
vt 0.000000 0.000000
vt 0.000000 0.000000
vt 0.000000 0.000000
vt 0.000000 0.000000
vt 0.000000 0.000000
vt 0.000000 0.000000
vt 0.000000 0.000000
vt 0.000000 0.000000
vt 0.000000 0.000000
vt 0.000000 0.000000
vt 0.000000 0.000000
vt 0.000000 0.000000
vt 0.000000 0.000000
vt 0.000000 0.000000
vt 0.000000 0.000000
vt 0.000000 0.000000
vt 0.000000 0.000000
vt 0.000000 0.000000
vt 0.000000 0.000000
vt 0.000000 0.000000
vt 0.000000 0.000000
vt 0.000000 0.000000
vt 0.000000 0.000000
vt 0.000000 0.000000
vt 0.000000 0.000000
vt 0.000000 0.000000
vt 0.000000 0.000000
vt 0.000000 0.000000
vt 0.000000 0.000000
vt 0.000000 0.000000
vt 0.000000 0.000000
vt 0.000000 0.000000
vt 0.000000 0.000000
vt 0.000000 0.000000
vt 0.000000 0.000000
vt 0.000000 0.000000
vt 0.000000 0.000000
vt 0.000000 0.000000
vt 0.000000 0.000000
vt 0.000000 0.000000
vt 0.000000 0.000000
vt 0.000000 0.000000
vt 0.000000 0.000000
vn 0.9973 0.0177 0.0714
vn 0.4647 0.0000 0.8855
vn -0.2393 0.0000 -0.9709
vn 0.8230 0.0000 0.5681
vn -0.6631 0.0000 -0.7485
vn 0.9927 0.0000 0.1205
vn -0.9350 0.0000 -0.3546
vn 0.9350 0.0000 -0.3546
vn -0.9927 0.0000 0.1205
vn 0.6631 0.0000 -0.7485
vn -0.8230 0.0000 0.5681
vn 0.2393 0.0000 -0.9709
vn -0.4647 0.0000 0.8855
vn -0.4273 -0.3932 0.8141
vn -0.4581 -0.1677 0.8729
vn 0.2200 -0.3932 -0.8928
vn 0.2359 -0.1677 -0.9572
vn -0.7567 -0.3932 0.5223
vn -0.8113 -0.1677 0.5600
vn 0.6097 -0.3932 -0.6882
vn 0.6537 -0.1677 -0.7379
vn -0.9128 -0.3932 0.1108
vn -0.9786 -0.1677 0.1188
vn 0.8597 -0.3932 -0.3260
vn 0.9218 -0.1677 -0.3496
vn -0.8597 -0.3932 -0.3260
vn -0.9218 -0.1677 -0.3496
vn 0.9128 -0.3932 0.1108
vn 0.9786 -0.1677 0.1188
vn -0.6097 -0.3932 -0.6882
vn -0.6537 -0.1677 -0.7379
vn 0.7567 -0.3932 0.5223
vn 0.8113 -0.1677 0.5600
vn -0.2200 -0.3932 -0.8928
vn -0.2359 -0.1677 -0.9572
vn 0.4273 -0.3932 0.8141
vn 0.4581 -0.1677 0.8729
vn 0.0000 -0.3932 0.9195
vn 0.0000 -0.9997 0.0237
vn 0.0000 -1.0000 0.0000
vn 0.0000 0.0000 1.0000
vn -0.0000 -0.1677 0.9858
vn -0.9989 -0.0414 0.0236
vn -0.9990 -0.0445 0.0000
vn 0.0000 0.9995 0.0325
vn 0.9990 -0.0445 0.0000
vn 0.9990 -0.0132 0.0420
vn 0.0000 0.9587 -0.2843
vn 0.9989 -0.0414 0.0236
vn 0.0000 -0.8119 0.5838
vn 0.0000 0.2432 0.9700
vn 0.0000 -0.2561 0.9666
vn -0.9990 -0.0132 0.0420
vn 0.0000 0.3660 -0.9306
vn 0.0000 -0.4326 -0.9016
vn -0.9990 0.0085 0.0430
vn 0.0000 -0.1131 -0.9936
vn 0.9990 0.0085 0.0430
vn 0.0000 0.9503 0.3114
vn 0.9990 0.0281 0.0347
vn 0.0000 0.6957 0.7184
vn -0.9990 0.0281 0.0347
vn 0.0000 -0.9926 -0.1217
vn -0.9991 0.0396 0.0137
vn 0.0000 -0.9375 -0.3479
vn 0.9991 0.0396 0.0137
vn -0.9973 0.0177 0.0714
vn 0.0000 0.9947 0.1027
vn 0.0000 1.0000 0.0000
vn -0.9350 0.0000 0.3546
vn 0.9350 0.0000 0.3546
vn -0.6631 0.0000 0.7485
vn 0.9927 0.0000 -0.1205
vn -0.2393 0.0000 0.9709
vn 0.8230 0.0000 -0.5681
vn 0.0000 0.0000 -1.0000
vn 0.4647 0.0000 -0.8855
vn -0.4647 0.0000 -0.8855
vn -0.8230 0.0000 -0.5681
vn 0.2393 0.0000 0.9709
vn -0.9927 0.0000 -0.1205
vn 0.6631 0.0000 0.7485
vn 0.4586 0.1619 -0.8738
vn -0.4586 0.1619 -0.8738
vn -0.8121 0.1619 -0.5606
vn 0.2362 0.1619 0.9581
vn -0.9796 0.1619 -0.1189
vn 0.6544 0.1619 0.7386
vn -0.9227 0.1619 0.3499
vn 0.9227 0.1619 0.3499
vn -0.6544 0.1619 0.7386
vn 0.9796 0.1619 -0.1189
vn -0.2362 0.1619 0.9581
vn 0.8121 0.1619 -0.5606
vn 0.0000 0.1619 -0.9868
vn 0.7103 0.5051 -0.4903
vn 0.0000 0.5051 -0.8630
vn 0.4011 0.5051 -0.7642
vn -0.4011 0.5051 -0.7642
vn -0.7103 0.5051 -0.4903
vn 0.2065 0.5051 0.8380
vn -0.8568 0.5051 -0.1040
vn 0.5723 0.5051 0.6460
vn -0.8070 0.5051 0.3060
vn 0.8070 0.5051 0.3060
vn -0.5723 0.5051 0.6460
vn 0.8568 0.5051 -0.1040
vn -0.2065 0.5051 0.8380
usemtl None
s off
f 53/1/1 84/2/1 83/3/1 29/4/1
f 31/5/2 22/6/2 21/7/2 59/8/2
f 35/9/3 15/10/3 14/11/3 34/12/3
f 37/13/4 23/14/4 22/6/4 31/5/4
f 39/15/5 16/16/5 15/10/5 35/9/5
f 41/17/6 24/18/6 23/14/6 37/13/6
f 43/19/7 17/20/7 16/16/7 39/15/7
f 45/21/8 25/22/8 24/18/8 41/17/8
f 47/23/9 18/24/9 17/20/9 43/19/9
f 49/25/10 26/26/10 25/22/10 45/21/10
f 51/27/11 19/28/11 18/24/11 47/23/11
f 34/12/12 14/11/12 26/26/12 49/25/12
f 58/29/13 20/30/13 19/28/13 51/27/13
f 7/31/14 57/32/14 52/33/14 6/34/14
f 57/32/15 58/29/15 51/27/15 52/33/15
f 1/35/16 33/36/16 50/37/16 13/38/16
f 33/36/17 34/12/17 49/25/17 50/37/17
f 6/34/18 52/33/18 48/39/18 5/40/18
f 52/33/19 51/27/19 47/23/19 48/39/19
f 13/38/20 50/37/20 46/41/20 12/42/20
f 50/37/21 49/25/21 45/21/21 46/41/21
f 5/40/22 48/39/22 44/43/22 4/44/22
f 48/39/23 47/23/23 43/19/23 44/43/23
f 12/42/24 46/41/24 42/45/24 11/46/24
f 46/41/25 45/21/25 41/17/25 42/45/25
f 4/44/26 44/43/26 40/47/26 3/48/26
f 44/43/27 43/19/27 39/15/27 40/47/27
f 11/46/28 42/45/28 38/49/28 10/50/28
f 42/45/29 41/17/29 37/13/29 38/49/29
f 3/48/30 40/47/30 36/51/30 2/52/30
f 40/47/31 39/15/31 35/9/31 36/51/31
f 10/50/32 38/49/32 32/53/32 9/54/32
f 38/49/33 37/13/33 31/5/33 32/53/33
f 2/52/34 36/51/34 33/36/34 1/35/34
f 36/51/35 35/9/35 34/12/35 33/36/35
f 9/54/36 32/53/36 60/55/36 8/56/36
f 32/53/37 31/5/37 59/8/37 60/55/37
f 8/56/38 60/55/38 57/32/38 7/31/38
f 30/57/39 64/58/39 61/59/39 27/60/39
f 4/44/40 3/48/40 6/34/40 5/40/40
f 3/48/40 2/52/40 7/31/40 6/34/40
f 2/52/40 1/35/40 8/56/40 7/31/40
f 9/54/40 8/56/40 1/35/40 13/38/40
f 10/50/40 9/54/40 12/42/40 11/46/40
f 13/38/40 12/42/40 9/54/40
f 53/1/41 21/7/41 20/30/41 55/61/41
f 55/61/41 20/30/41 58/29/41 28/62/41
f 29/4/41 59/8/41 21/7/41 53/1/41
f 28/62/41 58/29/41 59/8/41 29/4/41
f 54/63/42 58/29/42 57/32/42 27/60/42
f 30/57/42 60/55/42 59/8/42 56/64/42
f 27/60/42 57/32/42 60/55/42 30/57/42
f 56/64/42 59/8/42 58/29/42 54/63/42
f 61/59/43 65/65/43 66/66/43 62/67/43
f 27/60/44 61/59/44 62/67/44 54/63/44
f 54/63/45 62/67/45 63/68/45 56/64/45
f 56/64/46 63/68/46 64/58/46 30/57/46
f 67/69/47 71/70/47 72/71/47 68/72/47
f 62/67/48 66/66/48 67/69/48 63/68/48
f 63/68/49 67/69/49 68/72/49 64/58/49
f 64/58/50 68/72/50 65/65/50 61/59/50
f 72/71/51 76/73/51 73/74/51 69/75/51
f 68/72/52 72/71/52 69/75/52 65/65/52
f 65/65/53 69/75/53 70/76/53 66/66/53
f 66/66/54 70/76/54 71/70/54 67/69/54
f 74/77/55 78/78/55 79/79/55 75/80/55
f 69/75/56 73/74/56 74/77/56 70/76/56
f 70/76/57 74/77/57 75/80/57 71/70/57
f 71/70/58 75/80/58 76/73/58 72/71/58
f 80/81/59 84/2/59 81/82/59 77/83/59
f 75/80/60 79/79/60 80/81/60 76/73/60
f 76/73/61 80/81/61 77/83/61 73/74/61
f 73/74/62 77/83/62 78/78/62 74/77/62
f 29/4/63 83/3/63 82/84/63 28/62/63
f 77/83/64 81/82/64 82/84/64 78/78/64
f 78/78/65 82/84/65 83/3/65 79/79/65
f 79/79/66 83/3/66 84/2/66 80/81/66
f 28/62/67 82/84/67 81/82/67 55/61/67
f 55/61/68 81/82/68 84/2/68 53/1/68
f 25/22/69 26/26/69 97/85/69 96/86/69
f 18/24/69 19/28/69 90/87/69 89/88/69
f 26/26/69 14/11/69 85/89/69 97/85/69
f 19/28/69 20/30/69 91/90/69 90/87/69
f 21/7/69 22/6/69 93/91/69 92/92/69
f 14/11/69 15/10/69 86/93/69 85/89/69
f 22/6/69 23/14/69 94/94/69 93/91/69
f 15/10/69 16/16/69 87/95/69 86/93/69
f 23/14/69 24/18/69 95/96/69 94/94/69
f 20/30/69 21/7/69 92/92/69 91/90/69
f 16/16/69 17/20/69 88/97/69 87/95/69
f 24/18/69 25/22/69 96/86/69 95/96/69
f 17/20/69 18/24/69 89/88/69 88/97/69
f 95/96/70 96/86/70 109/98/70 108/99/70
f 87/95/71 88/97/71 101/100/71 100/101/71
f 96/86/72 97/85/72 110/102/72 109/98/72
f 88/97/73 89/88/73 102/103/73 101/100/73
f 97/85/74 85/89/74 98/104/74 110/102/74
f 89/88/75 90/87/75 103/105/75 102/103/75
f 91/90/76 92/92/76 105/106/76 104/107/76
f 90/87/77 91/90/77 104/107/77 103/105/77
f 92/92/78 93/91/78 106/108/78 105/106/78
f 93/91/79 94/94/79 107/109/79 106/108/79
f 85/89/80 86/93/80 99/110/80 98/104/80
f 94/94/81 95/96/81 108/99/81 107/109/81
f 86/93/82 87/95/82 100/101/82 99/110/82
f 103/105/83 104/107/83 117/111/83 116/112/83
f 105/106/84 106/108/84 119/113/84 118/114/84
f 106/108/85 107/109/85 120/115/85 119/113/85
f 98/104/86 99/110/86 112/116/86 111/117/86
f 107/109/87 108/99/87 121/118/87 120/115/87
f 99/110/88 100/101/88 113/119/88 112/116/88
f 108/99/89 109/98/89 122/120/89 121/118/89
f 100/101/90 101/100/90 114/121/90 113/119/90
f 109/98/91 110/102/91 123/122/91 122/120/91
f 101/100/92 102/103/92 115/123/92 114/121/92
f 110/102/93 98/104/93 111/117/93 123/122/93
f 102/103/94 103/105/94 116/112/94 115/123/94
f 104/107/95 105/106/95 118/114/95 117/111/95
f 115/123/96 116/112/96 129/124/96 128/125/96
f 117/111/97 118/114/97 131/126/97 130/127/97
f 116/112/98 117/111/98 130/127/98 129/124/98
f 118/114/99 119/113/99 132/128/99 131/126/99
f 119/113/100 120/115/100 133/129/100 132/128/100
f 111/117/101 112/116/101 125/130/101 124/131/101
f 120/115/102 121/118/102 134/132/102 133/129/102
f 112/116/103 113/119/103 126/133/103 125/130/103
f 121/118/104 122/120/104 135/134/104 134/132/104
f 113/119/105 114/121/105 127/135/105 126/133/105
f 122/120/106 123/122/106 136/136/106 135/134/106
f 114/121/107 115/123/107 128/125/107 127/135/107
f 123/122/108 111/117/108 124/131/108 136/136/108
f 125/130/69 126/133/69 127/135/69 128/125/69 129/124/69 130/127/69 131/126/69 132/128/69 133/129/69 134/132/69 135/134/69 136/136/69 124/131/69
