# Blender v2.80 (sub 74) OBJ File: 'table.blend'
# www.blender.org
mtllib table.mtl
o Circle
v -0.000000 0.000000 -0.491685
v -0.245842 0.000000 -0.425812
v -0.425812 0.000000 -0.245842
v -0.491685 0.000000 -0.000000
v -0.425812 0.000000 0.245842
v -0.245843 0.000000 0.425812
v -0.000000 0.000000 0.491685
v 0.245842 0.000000 0.425812
v 0.425812 0.000000 0.245843
v 0.491685 0.000000 0.000000
v 0.425812 0.000000 -0.245842
v 0.245843 0.000000 -0.425812
v 0.000000 0.040808 -0.035514
v -0.017757 0.040808 -0.030756
v -0.030756 0.040808 -0.017757
v -0.035514 0.040808 0.000000
v -0.030756 0.040808 0.017757
v -0.017757 0.040808 0.030756
v 0.000000 0.040808 0.035514
v 0.017757 0.040808 0.030756
v 0.030756 0.040808 0.017757
v 0.035514 0.040808 0.000000
v 0.030756 0.040808 -0.017757
v 0.017757 0.040808 -0.030756
v -0.362289 0.013779 -0.209168
v -0.418335 0.013779 -0.000000
v 0.418335 0.013779 0.000000
v 0.362289 0.013779 -0.209167
v -0.000000 0.013779 0.418335
v 0.209168 0.013779 0.362289
v -0.362289 0.013779 0.209168
v 0.209168 0.013779 -0.362289
v -0.000000 0.013779 -0.418335
v -0.209168 0.013779 -0.362289
v 0.362289 0.013779 0.209168
v -0.209168 0.013779 0.362289
v 0.000000 1.077625 -0.028304
v -0.014152 1.077625 -0.024512
v -0.024512 1.077625 -0.014152
v -0.028304 1.077625 0.000000
v -0.024512 1.077625 0.014152
v -0.014152 1.077625 0.024512
v 0.000000 1.077625 0.028304
v 0.014152 1.077625 0.024512
v 0.024512 1.077625 0.014152
v 0.028304 1.077625 0.000000
v 0.024512 1.077625 -0.014152
v 0.014152 1.077625 -0.024512
v 0.000000 1.077625 -0.739932
v -0.369966 1.077625 -0.640800
v -0.640800 1.077625 -0.369966
v -0.739932 1.077625 -0.000000
v -0.640800 1.077625 0.369966
v -0.369966 1.077625 0.640800
v -0.000000 1.077625 0.739932
v 0.369966 1.077625 0.640800
v 0.640800 1.077625 0.369966
v 0.739932 1.077625 0.000000
v 0.640800 1.077625 -0.369966
v 0.369967 1.077625 -0.640800
v 0.000000 1.124526 -0.739932
v -0.369966 1.124526 -0.640800
v -0.640800 1.124526 -0.369966
v -0.739932 1.124526 -0.000000
v -0.640800 1.124526 0.369966
v -0.369966 1.124526 0.640800
v -0.000000 1.124526 0.739932
v 0.369966 1.124526 0.640800
v 0.640800 1.124526 0.369966
v 0.739932 1.124526 0.000000
v 0.640800 1.124526 -0.369966
v 0.369967 1.124526 -0.640800
v 0.180556 1.124526 -0.336922
v -0.324827 1.124526 -0.201505
v 0.324827 1.124526 0.201505
v -0.180556 1.124526 0.336922
vt 0.000000 0.000000
vt 0.000000 0.000000
vt 0.000000 0.000000
vt 0.000000 0.000000
vt 0.000000 0.000000
vt 0.000000 0.000000
vt 0.000000 0.000000
vt 0.000000 0.000000
vt 0.000000 0.000000
vt 0.000000 0.000000
vt 0.000000 0.000000
vt 0.000000 0.000000
vt 0.000000 0.000000
vt 0.000000 0.000000
vt 0.000000 0.000000
vt 0.000000 0.000000
vt 0.000000 0.000000
vt 0.000000 0.000000
vt 0.000000 0.000000
vt 0.000000 0.000000
vt 0.000000 0.000000
vt 0.000000 0.000000
vt 0.000000 0.000000
vt 0.000000 0.000000
vt 0.000000 0.000000
vt 0.000000 0.000000
vt 0.000000 0.000000
vt 0.000000 0.000000
vt 0.000000 0.000000
vt 0.000000 0.000000
vt 0.000000 0.000000
vt 0.000000 0.000000
vt 0.000000 0.000000
vt 0.000000 0.000000
vt 0.000000 0.000000
vt 0.000000 0.000000
vt 0.000000 0.000000
vt 0.000000 0.000000
vt 0.000000 0.000000
vt 0.000000 0.000000
vt 0.000000 0.000000
vt 0.000000 0.000000
vt 0.000000 0.000000
vt 0.000000 0.000000
vt 0.000000 0.000000
vt 0.000000 0.000000
vt 0.000000 0.000000
vt 0.000000 0.000000
vt 0.000000 0.000000
vt 0.000000 0.000000
vt 0.000000 0.000000
vt 0.000000 0.000000
vt 0.000000 0.000000
vt 0.000000 0.000000
vt 0.000000 0.000000
vt 0.000000 0.000000
vt 0.000000 0.000000
vt 0.000000 0.000000
vt 0.000000 0.000000
vt 0.000000 0.000000
vt 0.000000 0.000000
vt 0.000000 0.000000
vt 0.000000 0.000000
vt 0.000000 0.000000
vt 0.000000 0.000000
vt 0.000000 0.000000
vt 0.000000 0.000000
vt 0.000000 0.000000
vt 0.000000 0.000000
vt 0.000000 0.000000
vt 0.000000 0.000000
vt 0.000000 0.000000
vt 0.000000 0.000000
vt 0.000000 0.000000
vt 0.000000 0.000000
vt 0.000000 0.000000
vn -0.0704 0.9973 -0.0189
vn 0.0704 0.9973 -0.0189
vn 0.0189 0.9973 0.0704
vn -0.0704 0.9973 0.0189
vn 0.0515 0.9973 -0.0515
vn -0.0189 0.9973 -0.0704
vn 0.0515 0.9973 0.0515
vn -0.0515 0.9973 0.0515
vn 0.0189 0.9973 -0.0704
vn -0.0515 0.9973 -0.0515
vn 0.0704 0.9973 0.0189
vn -0.0189 0.9973 0.0704
vn -0.0494 0.9816 0.1844
vn 0.1844 0.9816 0.0494
vn -0.1350 0.9816 -0.1350
vn 0.0494 0.9816 -0.1844
vn -0.1350 0.9816 0.1350
vn 0.1350 0.9816 0.1350
vn -0.0494 0.9816 -0.1844
vn 0.1350 0.9816 -0.1350
vn -0.1844 0.9816 0.0494
vn 0.0494 0.9816 0.1844
vn 0.1844 0.9816 -0.0494
vn -0.1844 0.9816 -0.0494
vn 0.2588 0.0067 0.9659
vn -0.9659 0.0067 0.2588
vn 0.7071 0.0067 -0.7071
vn -0.2588 0.0067 -0.9659
vn 0.7071 0.0067 0.7071
vn -0.7071 0.0067 0.7071
vn 0.2588 0.0067 -0.9659
vn -0.7071 0.0067 -0.7071
vn 0.9659 0.0067 0.2588
vn -0.2588 0.0067 0.9659
vn -0.9659 0.0067 -0.2588
vn 0.9659 0.0067 -0.2588
vn 0.0000 -1.0000 0.0000
vn 0.2588 0.0000 0.9659
vn -0.9659 0.0000 0.2588
vn 0.7071 0.0000 -0.7071
vn -0.2588 0.0000 -0.9659
vn 0.7071 0.0000 0.7071
vn -0.7071 0.0000 0.7071
vn 0.2588 0.0000 -0.9659
vn -0.7071 0.0000 -0.7071
vn 0.9659 0.0000 0.2588
vn -0.2588 0.0000 0.9659
vn -0.9659 0.0000 -0.2588
vn 0.9659 0.0000 -0.2588
vn 0.0000 1.0000 0.0000
usemtl Material.001
s off
f 25/1/1 26/2/1 16/3/1 15/4/1
f 27/5/2 28/6/2 23/7/2 22/8/2
f 29/9/3 30/10/3 20/11/3 19/12/3
f 26/2/4 31/13/4 17/14/4 16/3/4
f 28/6/5 32/15/5 24/16/5 23/7/5
f 33/17/6 34/18/6 14/19/6 13/20/6
f 30/10/7 35/21/7 21/22/7 20/11/7
f 31/13/8 36/23/8 18/24/8 17/14/8
f 32/15/9 33/17/9 13/20/9 24/16/9
f 34/18/10 25/1/10 15/4/10 14/19/10
f 35/21/11 27/5/11 22/8/11 21/22/11
f 36/23/12 29/9/12 19/12/12 18/24/12
f 6/25/13 7/26/13 29/9/13 36/23/13
f 9/27/14 10/28/14 27/5/14 35/21/14
f 2/29/15 3/30/15 25/1/15 34/18/15
f 12/31/16 1/32/16 33/17/16 32/15/16
f 5/33/17 6/25/17 36/23/17 31/13/17
f 8/34/18 9/27/18 35/21/18 30/10/18
f 1/32/19 2/29/19 34/18/19 33/17/19
f 11/35/20 12/31/20 32/15/20 28/6/20
f 4/36/21 5/33/21 31/13/21 26/2/21
f 7/26/22 8/34/22 30/10/22 29/9/22
f 10/28/23 11/35/23 28/6/23 27/5/23
f 3/30/24 4/36/24 26/2/24 25/1/24
f 19/12/25 20/11/25 44/37/25 43/38/25
f 16/3/26 17/14/26 41/39/26 40/40/26
f 23/7/27 24/16/27 48/41/27 47/42/27
f 13/20/28 14/19/28 38/43/28 37/44/28
f 20/11/29 21/22/29 45/45/29 44/37/29
f 17/14/30 18/24/30 42/46/30 41/39/30
f 24/16/31 13/20/31 37/44/31 48/41/31
f 14/19/32 15/4/32 39/47/32 38/43/32
f 21/22/33 22/8/33 46/48/33 45/45/33
f 18/24/34 19/12/34 43/38/34 42/46/34
f 15/4/35 16/3/35 40/40/35 39/47/35
f 22/8/36 23/7/36 47/42/36 46/48/36
f 43/38/37 44/37/37 56/49/37 55/50/37
f 40/40/37 41/39/37 53/51/37 52/52/37
f 47/42/37 48/41/37 60/53/37 59/54/37
f 37/44/37 38/43/37 50/55/37 49/56/37
f 44/37/37 45/45/37 57/57/37 56/49/37
f 41/39/37 42/46/37 54/58/37 53/51/37
f 48/41/37 37/44/37 49/56/37 60/53/37
f 38/43/37 39/47/37 51/59/37 50/55/37
f 45/45/37 46/48/37 58/60/37 57/57/37
f 42/46/37 43/38/37 55/50/37 54/58/37
f 39/47/37 40/40/37 52/52/37 51/59/37
f 46/48/37 47/42/37 59/54/37 58/60/37
f 55/50/38 56/49/38 68/61/38 67/62/38
f 52/52/39 53/51/39 65/63/39 64/64/39
f 59/54/40 60/53/40 72/65/40 71/66/40
f 49/56/41 50/55/41 62/67/41 61/68/41
f 56/49/42 57/57/42 69/69/42 68/61/42
f 53/51/43 54/58/43 66/70/43 65/63/43
f 60/53/44 49/56/44 61/68/44 72/65/44
f 50/55/45 51/59/45 63/71/45 62/67/45
f 57/57/46 58/60/46 70/72/46 69/69/46
f 54/58/47 55/50/47 67/62/47 66/70/47
f 51/59/48 52/52/48 64/64/48 63/71/48
f 58/60/49 59/54/49 71/66/49 70/72/49
f 61/68/50 73/73/50 71/66/50 72/65/50
f 73/73/50 75/74/50 70/72/50 71/66/50
f 75/74/50 68/61/50 69/69/50 70/72/50
f 62/67/50 74/75/50 73/73/50 61/68/50
f 74/75/50 76/76/50 75/74/50 73/73/50
f 76/76/50 67/62/50 68/61/50 75/74/50
f 63/71/50 64/64/50 74/75/50 62/67/50
f 64/64/50 65/63/50 76/76/50 74/75/50
f 65/63/50 66/70/50 67/62/50 76/76/50
